<svg xmlns="http://www.w3.org/2000/svg" viewBox="0 0 142 109.64">
  <path id="Fill_1" data-name="Fill 1" d="M83.15,7.64l58.85,102H36l64-11.27c-.65-.87-1-1.37-1.38-1.83Q82.5,77.35,66.42,58.2c-.71-.84-1.24-1.55-.76-2.85Q74.16,32.17,82.54,9c.12-.35.3-.67.61-1.32"/><path id="Fill_3" data-name="Fill 3" d="M0,97.49c1-1.74,1.74-3.1,2.52-4.46Q18.71,64.67,34.93,36.32a11.21,11.21,0,0,1,2.41-2.86Q56.44,17.17,75.59,1c.28-.24.59-.44,1.3-1-.41,1-.61,1.65-.88,2.23Q54.5,48.86,33,95.51a2.91,2.91,0,0,1-3.1,2c-9.24-.09-18.49,0-27.73,0Z"/>
</svg>
